                     =!DK GROUP HD BLURAY RELEAESEES!=

===================================================================================


 	
          Ra-One(2011)720p DVDRip In[Hindi-Tamil-Telugu]6CH.AC3 By !!!dip


===================================================================================

Storyline:

Originally from India, Tamil-speaking Shekar Subramaniam lives a middle-classed life abroad along with his wife, Sonia, and a school-going son, Prateek. While Sonia is busy writing a book on converting all female-related expletives to male, her husband is employed with Barron Industries, where the owner insists his staff come up with a plan to launch the ultimate video game or else he will change his organization to a restaurant and hire them as waiters. Hoping to create a super-hero, Shekhar instead faces criticism from Prateek - who hopes to instead see a kick-ass villain. This conversation does change Shekhar's thinking and he sets about to create an indestructible villain, calls him Ra.one (pronounced as in Lankeshwar Ravan) and its arch-enemy G.One (Jeevan). Prateek will have to regret passing on this idea on to his father - for soon their lives will be shattered when the shape-shifting Ra.One will find a way to enter the real world...


Cast:


Shah Rukh Khan	 ...	Shekhar Subramaniam / G.One
Kareena Kapoor	 ...	Sonia S. Subramanium
Arjun Rampal	 ...	Ra.One
Shahana Goswami	 ...	Jenny Nayar
Priyanka Chopra	 ...	Khalnayak's Girlfriend
Satish Shah	 ...	Iyer
Armaan Verma	 ...	Prateek / Shekhar's Son
Dalip Tahil	 ...	Barron
Suresh Menon	 ...	Taxi-Driver
Sanjay Dutt	 ...	Khalnayak
Rajnikanth	 ...	Chitti
Joe Egan	 ...	The Daddy
Ben Hawkey	 ...	Billy
Alex Moore	 ...	Dad
Mark Barrows	 ...	Airline Pilot

Directors :Anubhav Sinha
Writers :David Benullo, Shah Rukh Khan (screenplay)
Stars:Shah Rukh Khan, Kareena Kapoor and Arjun Rampal
Genre: Action | Adventure | Sci-Fi 
Language:[Hindi-Tamil-Telugu]6CH.AC3 
Format :Color, Dubbed,Widescreen
Release Date :26 October 2011 (India)
Run Time :02H:35M:59S
Encoder: Deep Shikha




Video Specifications:



Video
ID : 1
Format : AVC
Format/Info : Advanced Video Codec
Format profile : Main@L3.1
Format settings, CABAC : Yes
Format settings, ReFrames : 4 frames
Muxing mode : Header stripping
Codec ID : V_MPEG4/ISO/AVC
Duration : 2h 35mn
Bit rate : 1 470 Kbps
Width : 1 280 pixels
Height : 544 pixels
Display aspect ratio : 2.35:1
Frame rate mode : Variable
Frame rate : 25.000 fps
Color space : YUV
Chroma subsampling : 4:2:0
Bit depth : 8 bits
Scan type : Progressive
Bits/(Pixel*Frame) : 0.084
Stream size : 1.60 GiB (75%)
Title : !!!dip
Team : DK Group HD Bluray Releases





Audio Specifications:

Audio
ID : 1
Format : AC-3
Format/Info : Audio Coding 3
Mode extension : CM (complete main)
Muxing mode : Header stripping
Codec ID : A_AC3
Duration : 2h 35mn
Bit rate mode : Constant
Bit rate : 448 Kbps
Channel(s) : 6 channels
Channel positions : Front: L C R, Side: L R, LFE
Sampling rate : 48.0 KHz
Bit depth : 16 bits
Compression mode : Lossy
Stream size : 500 MiB (23%)
Title : !!!dip
Language : Hindi

Audio
ID : 2
Format : AC-3
Format/Info : Audio Coding 3
Mode extension : CM (complete main)
Muxing mode : Header stripping
Codec ID : A_AC3
Duration : 2h 35mn
Bit rate mode : Constant
Bit rate : 448 Kbps
Channel(s) : 6 channels
Channel positions : Front: L C R, Side: L R, LFE
Sampling rate : 48.0 KHz
Bit depth : 16 bits
Compression mode : Lossy
Stream size : 500 MiB
Title : !!!dip
Language : Tamil

Audio
ID : 1
Format : AC-3
Format/Info : Audio Coding 3
Mode extension : CM (complete main)
Muxing mode : Header stripping
Codec ID : A_AC3
Duration : 2h 35mn
Bit rate mode : Constant
Bit rate : 448 Kbps
Channel(s) : 6 channels
Channel positions : Front: L C R, Side: L R, LFE
Sampling rate : 48.0 KHz
Bit depth : 16 bits
Compression mode : Lossy
Stream size : 500 MiB
Title : !!!dip
Language : Telugu



SAMPLE IMAGE:
   
http://www.pix2links.com/images/67723280938773187938.jpg
 
http://www.pix2links.com/images/81268588752144327789.jpg



VIDEO SAMPLE IS AVAILABLE	